<svg width="17" height="17" viewBox="0 0 17 17" fill="none" xmlns="http://www.w3.org/2000/svg">
<path opacity="0.16" d="M13.4584 7.79173C13.4584 9.29462 12.8614 10.736 11.7987 11.7987C10.736 12.8614 9.29462 13.4584 7.79173 13.4584C6.28883 13.4584 4.8475 12.8614 3.78479 11.7987C2.72208 10.736 2.12506 9.29462 2.12506 7.79173C2.12506 6.28883 2.72208 4.8475 3.78479 3.78479C4.8475 2.72208 6.28883 2.12506 7.79173 2.12506C9.29462 2.12506 10.736 2.72208 11.7987 3.78479C12.8614 4.8475 13.4584 6.28883 13.4584 7.79173Z" fill="#787878"/>
<path d="M14.875 14.875L11.7987 11.7987M11.7987 11.7987C12.3249 11.2725 12.7423 10.6478 13.0271 9.96026C13.3119 9.27273 13.4585 8.53584 13.4585 7.79166C13.4585 7.04748 13.3119 6.31059 13.0271 5.62306C12.7423 4.93554 12.3249 4.31083 11.7987 3.78462C11.2725 3.25841 10.6478 2.84099 9.96026 2.55621C9.27273 2.27142 8.53584 2.12485 7.79166 2.12485C7.04748 2.12485 6.31059 2.27142 5.62306 2.55621C4.93554 2.84099 4.31083 3.25841 3.78462 3.78462C2.72188 4.84735 2.12485 6.28873 2.12485 7.79166C2.12485 9.29459 2.72188 10.736 3.78462 11.7987C4.84735 12.8614 6.28873 13.4585 7.79166 13.4585C9.29459 13.4585 10.736 12.8614 11.7987 11.7987Z" stroke="#787878" stroke-width="2" stroke-linecap="round" stroke-linejoin="round"/>
</svg>
